<svg xmlns="http://www.w3.org/2000/svg" xmlns:xlink="http://www.w3.org/1999/xlink" width="500" zoomAndPan="magnify" viewBox="0 0 375 187.499995" height="250" preserveAspectRatio="xMidYMid meet" version="1.0"><defs><g/><clipPath id="3a2c70bb5d"><path d="M 7.742188 14.097656 L 367.53125 14.097656 L 367.53125 171.925781 L 7.742188 171.925781 Z M 7.742188 14.097656 " clip-rule="nonzero"/></clipPath><clipPath id="e35026d25c"><path d="M 27.191406 14.097656 L 347.800781 14.097656 C 352.957031 14.097656 357.90625 16.144531 361.554688 19.792969 C 365.203125 23.441406 367.25 28.390625 367.25 33.546875 L 367.25 152.636719 C 367.25 157.792969 365.203125 162.742188 361.554688 166.390625 C 357.90625 170.035156 352.957031 172.085938 347.800781 172.085938 L 27.191406 172.085938 C 22.03125 172.085938 17.085938 170.035156 13.4375 166.390625 C 9.789062 162.742188 7.742188 157.792969 7.742188 152.636719 L 7.742188 33.546875 C 7.742188 28.390625 9.789062 23.441406 13.4375 19.792969 C 17.085938 16.144531 22.03125 14.097656 27.191406 14.097656 Z M 27.191406 14.097656 " clip-rule="nonzero"/></clipPath></defs><g clip-path="url(#3a2c70bb5d)"><g clip-path="url(#e35026d25c)"><path stroke-linecap="butt" transform="matrix(0.748005, 0, 0, 0.748005, 7.740441, 14.09706)" fill="none" stroke-linejoin="miter" d="M 26.003781 0.000796518 L 454.622922 0.000796518 C 461.516256 0.000796518 468.132812 2.737241 473.010368 7.614797 C 477.887924 12.492353 480.624368 19.108909 480.624368 26.002243 L 480.624368 185.212143 C 480.624368 192.105477 477.887924 198.722033 473.010368 203.599589 C 468.132812 208.471922 461.516256 211.213589 454.622922 211.213589 L 26.003781 211.213589 C 19.105225 211.213589 12.493891 208.471922 7.616335 203.599589 C 2.738779 198.722033 0.00233459 192.105477 0.00233459 185.212143 L 0.00233459 26.002243 C 0.00233459 19.108909 2.738779 12.492353 7.616335 7.614797 C 12.493891 2.737241 19.105225 0.000796518 26.003781 0.000796518 Z M 26.003781 0.000796518 " stroke="#000000" stroke-width="6" stroke-opacity="1" stroke-miterlimit="4"/></g></g><g fill="#ffffff" fill-opacity="1"><g transform="translate(185.263132, 94.879642)"><g><path d="M 3.84375 0 L 3.53125 0 L 3.53125 -2.1875 L 0.9375 -2.1875 L 0.9375 0 L 0.625 0 L 0.625 -4.4375 L 0.9375 -4.4375 L 0.9375 -2.46875 L 3.53125 -2.46875 L 3.53125 -4.4375 L 3.84375 -4.4375 Z M 3.84375 0 "/></g></g></g><g fill="#000000" fill-opacity="1"><g transform="translate(35.347877, 151.688829)"><g><path d="M 85.03125 -19.9375 L 85.03125 -49.40625 L 36.796875 -49.40625 L 36.796875 -15 L 46.6875 -14.484375 L 46.6875 0 L 5.453125 0 L 5.453125 -13.796875 L 11.078125 -14.3125 C 14.367188 -14.65625 16.015625 -16.242188 16.015625 -19.078125 L 16.015625 -98.3125 L 6.296875 -98.828125 L 6.296875 -113.3125 L 47.53125 -113.3125 L 47.53125 -99.515625 L 41.921875 -99 C 40.097656 -98.769531 38.785156 -98.285156 37.984375 -97.546875 C 37.191406 -96.804688 36.796875 -95.414062 36.796875 -93.375 L 36.796875 -66.96875 L 85.03125 -66.96875 L 85.03125 -98.3125 L 75.3125 -98.828125 L 75.3125 -113.3125 L 116.546875 -113.3125 L 116.546875 -99.515625 L 110.921875 -99 C 107.628906 -98.65625 105.984375 -96.835938 105.984375 -93.546875 L 105.984375 -15 L 115.6875 -14.484375 L 115.6875 0 L 74.453125 0 L 74.453125 -13.796875 L 80.078125 -14.3125 C 81.785156 -14.539062 83.035156 -15.023438 83.828125 -15.765625 C 84.628906 -16.503906 85.03125 -17.894531 85.03125 -19.9375 Z M 85.03125 -19.9375 "/></g></g></g><g fill="#000000" fill-opacity="1"><g transform="translate(156.6644, 151.688829)"><g/></g></g><g fill="#000000" fill-opacity="1"><g transform="translate(190.741301, 151.688829)"><g/></g></g><g fill="#000000" fill-opacity="1"><g transform="translate(224.822994, 151.688829)"><g><path d="M 85.03125 -19.9375 L 85.03125 -49.40625 L 36.796875 -49.40625 L 36.796875 -15 L 46.6875 -14.484375 L 46.6875 0 L 5.453125 0 L 5.453125 -13.796875 L 11.078125 -14.3125 C 14.367188 -14.65625 16.015625 -16.242188 16.015625 -19.078125 L 16.015625 -98.3125 L 6.296875 -98.828125 L 6.296875 -113.3125 L 47.53125 -113.3125 L 47.53125 -99.515625 L 41.921875 -99 C 40.097656 -98.769531 38.785156 -98.285156 37.984375 -97.546875 C 37.191406 -96.804688 36.796875 -95.414062 36.796875 -93.375 L 36.796875 -66.96875 L 85.03125 -66.96875 L 85.03125 -98.3125 L 75.3125 -98.828125 L 75.3125 -113.3125 L 116.546875 -113.3125 L 116.546875 -99.515625 L 110.921875 -99 C 107.628906 -98.65625 105.984375 -96.835938 105.984375 -93.546875 L 105.984375 -15 L 115.6875 -14.484375 L 115.6875 0 L 74.453125 0 L 74.453125 -13.796875 L 80.078125 -14.3125 C 81.785156 -14.539062 83.035156 -15.023438 83.828125 -15.765625 C 84.628906 -16.503906 85.03125 -17.894531 85.03125 -19.9375 Z M 85.03125 -19.9375 "/></g></g></g><g fill="#000000" fill-opacity="1"><g transform="translate(158.091434, 119.747861)"><g><path d="M 41.140625 -30.078125 C 41.140625 -37.085938 40.488281 -42.003906 39.1875 -44.828125 C 37.882812 -47.648438 35.664062 -49.0625 32.53125 -49.0625 C 29.488281 -49.0625 27.304688 -47.675781 25.984375 -44.90625 C 24.660156 -42.132812 24 -37.488281 24 -30.96875 L 24 -30.078125 Z M 60.640625 -24.109375 L 24 -24.109375 L 24 -23.703125 C 24 -16.816406 25.035156 -11.84375 27.109375 -8.78125 C 29.179688 -5.726562 32.523438 -4.203125 37.140625 -4.203125 C 40.984375 -4.203125 44.085938 -5.222656 46.453125 -7.265625 C 48.828125 -9.304688 50.347656 -12.265625 51.015625 -16.140625 L 59.34375 -16.140625 C 57.90625 -10.085938 55.046875 -5.640625 50.765625 -2.796875 C 46.492188 0.0351562 40.515625 1.453125 32.828125 1.453125 C 23.609375 1.453125 16.53125 -0.972656 11.59375 -5.828125 C 6.664062 -10.691406 4.203125 -17.632812 4.203125 -26.65625 C 4.203125 -35.476562 6.722656 -42.363281 11.765625 -47.3125 C 16.816406 -52.257812 23.835938 -54.734375 32.828125 -54.734375 C 41.648438 -54.734375 48.414062 -52.132812 53.125 -46.9375 C 57.832031 -41.738281 60.335938 -34.128906 60.640625 -24.109375 Z M 60.640625 -24.109375 "/></g></g></g></svg>